<mxfile host="app.diagrams.net" modified="2024-02-03T03:17:42.278Z" agent="Mozilla/5.0 (Windows NT 10.0; Win64; x64) AppleWebKit/537.36 (KHTML, like Gecko) Chrome/121.0.0.0 Safari/537.36" etag="DvONdR8BGvVBgTfwwgAx" version="23.1.1" type="github">
  <diagram name="Page-1" id="iRqYBc1ED8v6f8ATTpyQ">
    <mxGraphModel dx="472" dy="736" grid="1" gridSize="10" guides="1" tooltips="1" connect="1" arrows="1" fold="1" page="1" pageScale="1" pageWidth="850" pageHeight="1100" math="0" shadow="0">
      <root>
        <mxCell id="0" />
        <mxCell id="1" parent="0" />
        <mxCell id="WNB8_c_hesENyB0Rqsqv-11" style="edgeStyle=orthogonalEdgeStyle;rounded=0;orthogonalLoop=1;jettySize=auto;html=1;entryX=0.5;entryY=0;entryDx=0;entryDy=0;" edge="1" parent="1" source="WNB8_c_hesENyB0Rqsqv-1" target="WNB8_c_hesENyB0Rqsqv-2">
          <mxGeometry relative="1" as="geometry" />
        </mxCell>
        <mxCell id="WNB8_c_hesENyB0Rqsqv-1" value="Start" style="ellipse;whiteSpace=wrap;html=1;" vertex="1" parent="1">
          <mxGeometry x="365" y="60" width="120" height="80" as="geometry" />
        </mxCell>
        <mxCell id="WNB8_c_hesENyB0Rqsqv-12" style="edgeStyle=orthogonalEdgeStyle;rounded=0;orthogonalLoop=1;jettySize=auto;html=1;entryX=0.5;entryY=0;entryDx=0;entryDy=0;" edge="1" parent="1" source="WNB8_c_hesENyB0Rqsqv-2" target="WNB8_c_hesENyB0Rqsqv-6">
          <mxGeometry relative="1" as="geometry" />
        </mxCell>
        <mxCell id="WNB8_c_hesENyB0Rqsqv-2" value="read switch data" style="shape=parallelogram;perimeter=parallelogramPerimeter;whiteSpace=wrap;html=1;fixedSize=1;" vertex="1" parent="1">
          <mxGeometry x="365" y="180" width="120" height="60" as="geometry" />
        </mxCell>
        <mxCell id="WNB8_c_hesENyB0Rqsqv-14" style="edgeStyle=orthogonalEdgeStyle;rounded=0;orthogonalLoop=1;jettySize=auto;html=1;entryX=0.5;entryY=0;entryDx=0;entryDy=0;" edge="1" parent="1" source="WNB8_c_hesENyB0Rqsqv-3" target="WNB8_c_hesENyB0Rqsqv-4">
          <mxGeometry relative="1" as="geometry" />
        </mxCell>
        <mxCell id="WNB8_c_hesENyB0Rqsqv-3" value="split 32-bit value into two 16-bit values (upper and lower)" style="rounded=0;whiteSpace=wrap;html=1;" vertex="1" parent="1">
          <mxGeometry x="365" y="360" width="120" height="60" as="geometry" />
        </mxCell>
        <mxCell id="WNB8_c_hesENyB0Rqsqv-15" style="edgeStyle=orthogonalEdgeStyle;rounded=0;orthogonalLoop=1;jettySize=auto;html=1;exitX=0.5;exitY=1;exitDx=0;exitDy=0;entryX=0.5;entryY=0;entryDx=0;entryDy=0;" edge="1" parent="1" source="WNB8_c_hesENyB0Rqsqv-4" target="WNB8_c_hesENyB0Rqsqv-5">
          <mxGeometry relative="1" as="geometry" />
        </mxCell>
        <mxCell id="WNB8_c_hesENyB0Rqsqv-4" value="i &amp;lt; lower 16-bit value" style="rhombus;whiteSpace=wrap;html=1;" vertex="1" parent="1">
          <mxGeometry x="363" y="440" width="125" height="140" as="geometry" />
        </mxCell>
        <mxCell id="WNB8_c_hesENyB0Rqsqv-16" style="edgeStyle=orthogonalEdgeStyle;rounded=0;orthogonalLoop=1;jettySize=auto;html=1;entryX=0.5;entryY=0;entryDx=0;entryDy=0;" edge="1" parent="1" source="WNB8_c_hesENyB0Rqsqv-5" target="WNB8_c_hesENyB0Rqsqv-8">
          <mxGeometry relative="1" as="geometry" />
        </mxCell>
        <mxCell id="WNB8_c_hesENyB0Rqsqv-5" value="add upper 16-bit value to value holder" style="rounded=0;whiteSpace=wrap;html=1;" vertex="1" parent="1">
          <mxGeometry x="365" y="610" width="120" height="60" as="geometry" />
        </mxCell>
        <mxCell id="WNB8_c_hesENyB0Rqsqv-13" style="edgeStyle=orthogonalEdgeStyle;rounded=0;orthogonalLoop=1;jettySize=auto;html=1;entryX=0.5;entryY=0;entryDx=0;entryDy=0;" edge="1" parent="1" source="WNB8_c_hesENyB0Rqsqv-6" target="WNB8_c_hesENyB0Rqsqv-3">
          <mxGeometry relative="1" as="geometry" />
        </mxCell>
        <mxCell id="WNB8_c_hesENyB0Rqsqv-6" value="initialize counter (i) and value holder" style="rounded=0;whiteSpace=wrap;html=1;" vertex="1" parent="1">
          <mxGeometry x="365" y="270" width="120" height="60" as="geometry" />
        </mxCell>
        <mxCell id="WNB8_c_hesENyB0Rqsqv-17" style="edgeStyle=orthogonalEdgeStyle;rounded=0;orthogonalLoop=1;jettySize=auto;html=1;entryX=0.5;entryY=0;entryDx=0;entryDy=0;" edge="1" parent="1" source="WNB8_c_hesENyB0Rqsqv-8" target="WNB8_c_hesENyB0Rqsqv-9">
          <mxGeometry relative="1" as="geometry" />
        </mxCell>
        <mxCell id="WNB8_c_hesENyB0Rqsqv-8" value="check if i &amp;gt; lower &lt;br&gt;16-bit value" style="rhombus;whiteSpace=wrap;html=1;" vertex="1" parent="1">
          <mxGeometry x="363" y="700" width="125" height="140" as="geometry" />
        </mxCell>
        <mxCell id="WNB8_c_hesENyB0Rqsqv-18" style="edgeStyle=orthogonalEdgeStyle;rounded=0;orthogonalLoop=1;jettySize=auto;html=1;entryX=0.5;entryY=0;entryDx=0;entryDy=0;" edge="1" parent="1" source="WNB8_c_hesENyB0Rqsqv-9" target="WNB8_c_hesENyB0Rqsqv-10">
          <mxGeometry relative="1" as="geometry" />
        </mxCell>
        <mxCell id="WNB8_c_hesENyB0Rqsqv-9" value="output to 7-seg" style="shape=parallelogram;perimeter=parallelogramPerimeter;whiteSpace=wrap;html=1;fixedSize=1;" vertex="1" parent="1">
          <mxGeometry x="365" y="870" width="120" height="60" as="geometry" />
        </mxCell>
        <mxCell id="WNB8_c_hesENyB0Rqsqv-10" value="end" style="ellipse;whiteSpace=wrap;html=1;" vertex="1" parent="1">
          <mxGeometry x="365" y="970" width="120" height="80" as="geometry" />
        </mxCell>
        <mxCell id="WNB8_c_hesENyB0Rqsqv-21" value="" style="endArrow=none;html=1;rounded=0;exitX=1;exitY=0.5;exitDx=0;exitDy=0;" edge="1" parent="1" source="WNB8_c_hesENyB0Rqsqv-8">
          <mxGeometry width="50" height="50" relative="1" as="geometry">
            <mxPoint x="520" y="770" as="sourcePoint" />
            <mxPoint x="560" y="770" as="targetPoint" />
          </mxGeometry>
        </mxCell>
        <mxCell id="WNB8_c_hesENyB0Rqsqv-22" value="" style="endArrow=none;html=1;rounded=0;" edge="1" parent="1">
          <mxGeometry width="50" height="50" relative="1" as="geometry">
            <mxPoint x="560" y="770" as="sourcePoint" />
            <mxPoint x="560" y="640" as="targetPoint" />
          </mxGeometry>
        </mxCell>
        <mxCell id="WNB8_c_hesENyB0Rqsqv-23" value="" style="endArrow=classic;html=1;rounded=0;entryX=1;entryY=0.5;entryDx=0;entryDy=0;" edge="1" parent="1" target="WNB8_c_hesENyB0Rqsqv-5">
          <mxGeometry width="50" height="50" relative="1" as="geometry">
            <mxPoint x="560" y="640" as="sourcePoint" />
            <mxPoint x="610" y="580" as="targetPoint" />
          </mxGeometry>
        </mxCell>
        <mxCell id="WNB8_c_hesENyB0Rqsqv-24" value="False" style="text;html=1;strokeColor=none;fillColor=none;align=center;verticalAlign=middle;whiteSpace=wrap;rounded=0;" vertex="1" parent="1">
          <mxGeometry x="560" y="700" width="60" height="30" as="geometry" />
        </mxCell>
        <mxCell id="WNB8_c_hesENyB0Rqsqv-25" value="True" style="text;html=1;strokeColor=none;fillColor=none;align=center;verticalAlign=middle;whiteSpace=wrap;rounded=0;" vertex="1" parent="1">
          <mxGeometry x="428" y="840" width="60" height="30" as="geometry" />
        </mxCell>
      </root>
    </mxGraphModel>
  </diagram>
</mxfile>
